<svg xmlns="http://www.w3.org/2000/svg" xmlns:xlink="http://www.w3.org/1999/xlink" id="Layer_1" x="0" y="0" enable-background="new 0 0 516.582 150.602" version="1.1" viewBox="0 0 516.582 150.602" xml:space="preserve"><style type="text/css">.st0{display:none;fill:none;stroke:#2c6c88;stroke-miterlimit:10}.st1{fill:#2c6c88}.st2{fill:#d6e5ef}.st3{fill:#7fa2b9}.st4{fill:none;stroke:#2c6c88;stroke-width:3;stroke-linecap:round;stroke-linejoin:round;stroke-miterlimit:10}</style><metadata><sfw xmlns="http://ns.adobe.com/SaveForWeb/1.0/"><slices/><sliceSourceBounds width="631.595" height="265.796" x="105.099" y="-430.331" bottomLeftOrigin="true"/></sfw></metadata><g><path d="M568.233,208.103H-51.024c-3.131,0-5.669-2.538-5.669-5.669V-51.023c0-3.131,2.538-5.669,5.669-5.669h619.257 c3.131,0,5.669,2.538,5.669,5.669v253.457C573.902,205.565,571.364,208.103,568.233,208.103z" class="st0"/><g><path d="M16.873,67.939c0,1.748-1.417,3.165-3.165,3.165s-3.165-1.417-3.165-3.165c0-1.748,1.417-3.165,3.165-3.165 S16.873,66.191,16.873,67.939z M18.427,97.984c-1.748,0-3.165,1.417-3.165,3.165s1.417,3.165,3.165,3.165 c1.748,0,3.165-1.417,3.165-3.165S20.175,97.984,18.427,97.984z M54.632,45.624C44.621,48.716,15.938,56.658,0,59.384 c3.165,12.406,8.483,43.551,11.711,62.54c-3.228-18.989-6.741-47.093-8.64-59.531C24.928,54.593,41.968,49.688,54.632,45.624z M94.543,18.627c0,12.748-11.603,18.046-39.912,26.998c5.497-4.803,11.68-8.996,17.221-12.753 c10.834-7.347,20.192-13.692,20.192-21.519c0-2.129-0.473-3.994-1.418-5.596C93.03,8.515,94.543,12.594,94.543,18.627z" class="st1"/><g><path d="M34.659,10.596c-4.236,0-5.786,2.867-6.34,4.19c-0.18,0.431-0.28,0.897-0.303,1.388 c-0.163-0.324-0.309-0.647-0.438-0.97c-1.635-4.088-1.646-7.369-0.032-9.753C30.854,0.565,40.248,0,47.025,0h22.56 c14.131,0,21,3.713,21,11.353c0,1.816-0.586,3.628-1.805,5.52c0.057-0.724-0.038-1.409-0.293-2.026 c-0.56-1.351-2.13-4.252-6.422-4.252C77.412,10.596,39.312,10.596,34.659,10.596z" class="st2"/></g><g><path d="M26.224,15.745c2.376,5.938,9.122,10.603,16.265,15.542c5.016,3.468,10.195,7.049,13.727,11.097 c-0.404,0.33-0.807,0.662-1.206,0.998c-22.775-7.488-32.943-12.88-32.943-24.756c0-5.535,1.274-9.426,3.341-12.16 C24.499,9.001,24.771,12.111,26.224,15.745z" class="st2"/></g></g><g><path d="M40.05,61.587v10.8h-1.312l-0.07-1.02c-0.43,0.37-0.975,0.656-1.635,0.858 c-0.66,0.201-1.436,0.302-2.326,0.302c-0.977,0-1.832-0.163-2.566-0.489c-0.734-0.326-1.301-0.781-1.699-1.368 c-0.398-0.586-0.598-1.256-0.598-2.011v-0.147c0-0.783,0.197-1.466,0.592-2.05s0.961-1.034,1.699-1.35s1.604-0.475,2.596-0.475 c0.875,0,1.639,0.104,2.291,0.313s1.193,0.505,1.623,0.89v-4.254H40.05z M37.231,71.427c0.605-0.246,1.076-0.58,1.412-1.002 v-3.586c-0.312-0.436-0.762-0.79-1.348-1.062s-1.352-0.408-2.297-0.408c-0.828,0-1.523,0.136-2.086,0.408s-0.98,0.644-1.254,1.114 c-0.273,0.471-0.41,1.012-0.41,1.621v0.147c0,0.604,0.137,1.144,0.41,1.617s0.688,0.845,1.242,1.114 c0.555,0.27,1.246,0.404,2.074,0.404C35.874,71.796,36.626,71.673,37.231,71.427z" class="st3"/><path d="M45.317,62.17c0.176,0.108,0.264,0.244,0.264,0.408c0,0.159-0.088,0.292-0.264,0.397 s-0.412,0.158-0.709,0.158c-0.289,0-0.521-0.053-0.697-0.158s-0.264-0.238-0.264-0.397c0-0.164,0.088-0.3,0.264-0.408 s0.408-0.162,0.697-0.162C44.905,62.009,45.141,62.063,45.317,62.17z M43.905,72.387v-7.608H45.3v7.608H43.905z" class="st3"/><path d="M57.657,65.306c0.691,0.445,1.037,1.153,1.037,2.124v4.957h-1.406V67.43c0-0.75-0.254-1.282-0.762-1.596 s-1.25-0.471-2.227-0.471c-0.914,0-1.695,0.172-2.344,0.517c-0.648,0.344-1.125,0.772-1.43,1.283v5.224H49.12v-7.608h1.348 l0.047,1.287c0.453-0.445,1.035-0.794,1.746-1.047c0.711-0.253,1.508-0.38,2.391-0.38C55.964,64.638,56.966,64.861,57.657,65.306z" class="st3"/><path d="M78.37,68.66c0,0.759-0.191,1.431-0.574,2.015c-0.383,0.583-0.939,1.038-1.67,1.364 c-0.73,0.326-1.596,0.489-2.596,0.489c-0.875,0-1.646-0.096-2.314-0.288c-0.668-0.192-1.221-0.464-1.658-0.816v3.888h-1.406 V64.779h1.312l0.07,1.076c0.438-0.394,0.988-0.695,1.652-0.903s1.438-0.313,2.32-0.313c1.016,0,1.889,0.158,2.619,0.475 s1.287,0.766,1.67,1.347s0.574,1.266,0.574,2.053V68.66z M76.964,68.513c0-0.605-0.139-1.144-0.416-1.617 c-0.277-0.474-0.697-0.846-1.26-1.118s-1.262-0.408-2.098-0.408c-0.938,0-1.699,0.133-2.285,0.401 c-0.586,0.267-1.035,0.616-1.348,1.047v3.664c0.336,0.412,0.805,0.737,1.406,0.974s1.352,0.355,2.25,0.355 c0.828,0,1.521-0.136,2.08-0.408s0.977-0.646,1.254-1.122c0.277-0.476,0.416-1.016,0.416-1.621V68.513z" class="st3"/><path d="M82.096,68.632v0.162c0,0.558,0.184,1.067,0.551,1.529c0.367,0.461,0.879,0.826,1.535,1.093 s1.406,0.401,2.25,0.401c0.758,0,1.426-0.083,2.004-0.25c0.578-0.166,1.094-0.43,1.547-0.791l0.891,0.401 c-0.461,0.408-1.061,0.735-1.799,0.981s-1.639,0.369-2.701,0.369c-1.086,0-2.061-0.159-2.924-0.478s-1.539-0.762-2.027-1.329 c-0.488-0.567-0.732-1.209-0.732-1.926v-0.303c0-0.759,0.248-1.432,0.744-2.018s1.16-1.039,1.992-1.357 c0.832-0.318,1.732-0.478,2.701-0.478c1.047,0,1.949,0.148,2.707,0.443c0.758,0.295,1.332,0.706,1.723,1.23 c0.391,0.525,0.586,1.127,0.586,1.807v0.513H82.096z M84.223,65.672c-0.566,0.211-1.029,0.51-1.389,0.896s-0.586,0.835-0.68,1.347 h7.582v-0.092c-0.016-0.44-0.162-0.848-0.439-1.223s-0.686-0.676-1.225-0.904c-0.539-0.227-1.188-0.341-1.945-0.341 C85.425,65.356,84.79,65.461,84.223,65.672z" class="st3"/><path d="M99.733,65.489c-0.359-0.033-0.672-0.049-0.938-0.049c-0.914,0-1.668,0.152-2.262,0.457 s-1.012,0.72-1.254,1.245v5.245h-1.406v-7.608h1.371l0.035,1.195c0.352-0.422,0.826-0.75,1.424-0.984s1.311-0.352,2.139-0.352 c0.164,0,0.336,0.008,0.516,0.025c0.18,0.016,0.32,0.036,0.422,0.06L99.733,65.489z" class="st3"/><path d="M103.712,68.393c-0.637-0.173-1.123-0.396-1.459-0.668s-0.504-0.612-0.504-1.02 c0-0.38,0.184-0.727,0.551-1.041s0.889-0.564,1.564-0.749s1.459-0.278,2.35-0.278c0.961,0,1.795,0.098,2.502,0.292 s1.248,0.464,1.623,0.809c0.375,0.344,0.562,0.735,0.562,1.17h-1.418c0-0.267-0.129-0.52-0.387-0.759 c-0.258-0.239-0.635-0.431-1.131-0.577c-0.496-0.145-1.08-0.218-1.752-0.218c-0.695,0-1.271,0.063-1.729,0.19 s-0.795,0.291-1.014,0.492s-0.328,0.415-0.328,0.64c0,0.244,0.088,0.45,0.264,0.619c0.176,0.169,0.51,0.324,1.002,0.464 s1.199,0.274,2.121,0.401c1.047,0.145,1.893,0.315,2.537,0.51c0.645,0.194,1.123,0.431,1.436,0.71s0.469,0.62,0.469,1.023 c0,0.413-0.193,0.781-0.58,1.104s-0.934,0.574-1.641,0.752s-1.525,0.267-2.455,0.267c-1.031,0-1.922-0.104-2.672-0.313 s-1.32-0.487-1.711-0.836s-0.586-0.726-0.586-1.129h1.395c0.062,0.549,0.439,0.946,1.131,1.192s1.506,0.369,2.443,0.369 c0.688,0,1.277-0.063,1.77-0.19c0.492-0.126,0.865-0.292,1.119-0.499c0.254-0.206,0.381-0.431,0.381-0.675 c0-0.361-0.242-0.678-0.727-0.949c-0.484-0.272-1.375-0.49-2.672-0.654C105.167,68.716,104.348,68.566,103.712,68.393z" class="st3"/><path d="M114.065,66.495c0.469-0.581,1.131-1.036,1.986-1.364s1.842-0.492,2.959-0.492 c1.125,0,2.117,0.164,2.977,0.492s1.523,0.783,1.992,1.364s0.703,1.24,0.703,1.976v0.225c0,0.736-0.234,1.395-0.703,1.976 c-0.469,0.582-1.129,1.036-1.98,1.364s-1.84,0.492-2.965,0.492s-2.117-0.164-2.977-0.492s-1.523-0.783-1.992-1.364 c-0.469-0.581-0.703-1.24-0.703-1.976V68.47C113.362,67.734,113.596,67.076,114.065,66.495z M115.266,70.256 c0.332,0.474,0.82,0.851,1.465,1.132s1.412,0.422,2.303,0.422c0.883,0,1.645-0.141,2.285-0.422s1.127-0.658,1.459-1.132 s0.498-0.994,0.498-1.561V68.47c0-0.558-0.168-1.073-0.504-1.547c-0.336-0.473-0.826-0.853-1.471-1.139 c-0.645-0.286-1.408-0.429-2.291-0.429s-1.645,0.143-2.285,0.429c-0.641,0.286-1.127,0.666-1.459,1.139 c-0.332,0.474-0.498,0.989-0.498,1.547v0.225C114.768,69.263,114.934,69.783,115.266,70.256z" class="st3"/><path d="M136.114,65.306c0.691,0.445,1.037,1.153,1.037,2.124v4.957h-1.406V67.43c0-0.75-0.254-1.282-0.762-1.596 s-1.25-0.471-2.227-0.471c-0.914,0-1.695,0.172-2.344,0.517c-0.648,0.344-1.125,0.772-1.43,1.283v5.224h-1.406v-7.608h1.348 l0.047,1.287c0.453-0.445,1.035-0.794,1.746-1.047c0.711-0.253,1.508-0.38,2.391-0.38 C134.421,64.638,135.423,64.861,136.114,65.306z" class="st3"/><path d="M140.948,72.387v-10.8h1.395v10.8H140.948z" class="st3"/><path d="M147.751,62.17c0.176,0.108,0.264,0.244,0.264,0.408c0,0.159-0.088,0.292-0.264,0.397 s-0.412,0.158-0.709,0.158c-0.289,0-0.521-0.053-0.697-0.158s-0.264-0.238-0.264-0.397c0-0.164,0.088-0.3,0.264-0.408 s0.408-0.162,0.697-0.162C147.339,62.009,147.575,62.063,147.751,62.17z M146.339,72.387v-7.608h1.395v7.608H146.339z" class="st3"/><path d="M161.21,64.779v7.474c0,0.652-0.209,1.217-0.627,1.695s-1.01,0.844-1.775,1.097 c-0.766,0.253-1.66,0.38-2.684,0.38c-0.836,0-1.658-0.113-2.467-0.337c-0.809-0.225-1.459-0.546-1.951-0.963l0.785-0.513 c0.5,0.375,1.043,0.651,1.629,0.83s1.227,0.267,1.922,0.267c1.195,0,2.121-0.213,2.777-0.64c0.656-0.427,0.984-1.022,0.984-1.786 v-0.886c-0.438,0.361-0.984,0.64-1.641,0.836s-1.422,0.295-2.297,0.295c-0.984,0-1.844-0.163-2.578-0.489 c-0.734-0.326-1.299-0.781-1.693-1.368c-0.395-0.586-0.592-1.256-0.592-2.011v-0.147c0-0.783,0.195-1.466,0.586-2.05 s0.953-1.034,1.688-1.35s1.605-0.475,2.613-0.475c0.891,0,1.664,0.107,2.32,0.32c0.656,0.213,1.199,0.52,1.629,0.918l0.059-1.097 H161.21z M158.409,71.42c0.602-0.25,1.066-0.594,1.395-1.03v-3.516c-0.297-0.445-0.74-0.807-1.33-1.086s-1.361-0.418-2.314-0.418 c-0.828,0-1.523,0.136-2.086,0.408s-0.98,0.644-1.254,1.114c-0.273,0.471-0.41,1.012-0.41,1.621v0.147 c0,0.604,0.137,1.144,0.41,1.617s0.688,0.845,1.242,1.114c0.555,0.27,1.246,0.404,2.074,0.404 C157.05,71.796,157.807,71.671,158.409,71.42z" class="st3"/><path d="M165.511,68.632v0.162c0,0.558,0.184,1.067,0.551,1.529c0.367,0.461,0.879,0.826,1.535,1.093 s1.406,0.401,2.25,0.401c0.758,0,1.426-0.083,2.004-0.25c0.578-0.166,1.094-0.43,1.547-0.791l0.891,0.401 c-0.461,0.408-1.061,0.735-1.799,0.981s-1.639,0.369-2.701,0.369c-1.086,0-2.061-0.159-2.924-0.478s-1.539-0.762-2.027-1.329 c-0.488-0.567-0.732-1.209-0.732-1.926v-0.303c0-0.759,0.248-1.432,0.744-2.018s1.16-1.039,1.992-1.357 c0.832-0.318,1.732-0.478,2.701-0.478c1.047,0,1.949,0.148,2.707,0.443c0.758,0.295,1.332,0.706,1.723,1.23 c0.391,0.525,0.586,1.127,0.586,1.807v0.513H165.511z M167.637,65.672c-0.566,0.211-1.029,0.51-1.389,0.896 s-0.586,0.835-0.68,1.347h7.582v-0.092c-0.016-0.44-0.162-0.848-0.439-1.223s-0.686-0.676-1.225-0.904 c-0.539-0.227-1.188-0.341-1.945-0.341C168.839,65.356,168.204,65.461,167.637,65.672z" class="st3"/><path d="M186.147,68.555l-1.605,0.921v2.911h-1.395v-10.8h1.395v6.904l1.324-0.857l4.863-2.855h1.77l-5.379,3.207 l5.848,4.401h-1.688L186.147,68.555z" class="st3"/><path d="M194.843,66.495c0.469-0.581,1.131-1.036,1.986-1.364s1.842-0.492,2.959-0.492 c1.125,0,2.117,0.164,2.977,0.492s1.523,0.783,1.992,1.364s0.703,1.24,0.703,1.976v0.225c0,0.736-0.234,1.395-0.703,1.976 c-0.469,0.582-1.129,1.036-1.98,1.364s-1.84,0.492-2.965,0.492s-2.117-0.164-2.977-0.492s-1.523-0.783-1.992-1.364 c-0.469-0.581-0.703-1.24-0.703-1.976V68.47C194.139,67.734,194.374,67.076,194.843,66.495z M196.044,70.256 c0.332,0.474,0.82,0.851,1.465,1.132s1.412,0.422,2.303,0.422c0.883,0,1.645-0.141,2.285-0.422s1.127-0.658,1.459-1.132 s0.498-0.994,0.498-1.561V68.47c0-0.558-0.168-1.073-0.504-1.547c-0.336-0.473-0.826-0.853-1.471-1.139 c-0.645-0.286-1.408-0.429-2.291-0.429s-1.645,0.143-2.285,0.429c-0.641,0.286-1.127,0.666-1.459,1.139 c-0.332,0.474-0.498,0.989-0.498,1.547v0.225C195.546,69.263,195.712,69.783,196.044,70.256z" class="st3"/><path d="M211.366,68.555l-1.605,0.921v2.911h-1.395v-10.8h1.395v6.904l1.324-0.857l4.863-2.855h1.77l-5.379,3.207 l5.848,4.401h-1.688L211.366,68.555z" class="st3"/></g><g><path d="M58.317,101.423c0,0,16.516,0,21.363,0c8.261,0,14.958,6.697,14.958,14.958S87.941,131.34,79.68,131.34 s-21.363,0-21.363,0v17.763" class="st4"/><path d="M237.19,101.423c0,0,16.516,0,21.363,0c8.261,0,14.958,6.697,14.958,14.958s-6.697,14.958-14.958,14.958 c-8.261,0-21.363,0-21.363,0v17.763" class="st4"/><polyline points="515.082 125.263 486.795 125.263 486.795 149.102" class="st4"/><line x1="486.795" x2="515.082" y1="101.423" y2="101.423" class="st4"/><polyline points="158.66 149.102 135.6 101.423 112.54 149.102" class="st4"/><line x1="192.783" x2="192.783" y1="149.102" y2="101.423" class="st4"/><line x1="303.108" x2="303.108" y1="149.102" y2="101.423" class="st4"/><line x1="403.598" x2="403.598" y1="149.102" y2="101.423" class="st4"/><line x1="403.598" x2="438.422" y1="136.014" y2="101.423" class="st4"/><line x1="211.636" x2="173.93" y1="101.423" y2="101.423" class="st4"/><line x1="272.092" x2="259.07" y1="149.102" y2="132.018" class="st4"/><line x1="440.759" x2="418.088" y1="149.102" y2="122.926" class="st4"/><path d="M374.083,107.299c-4.263-3.995-9.979-6.46-16.282-6.46c-13.166,0-23.839,10.673-23.839,23.84 s10.673,23.839,23.839,23.839c6.303,0,12.018-2.464,16.281-6.459" class="st4"/></g></g></svg>