<svg xmlns="http://www.w3.org/2000/svg" id="Layer_1" data-name="Layer 1" viewBox="0 0 21 24"><defs><style>.cls-1{fill:#fefefe}.cls-2{fill:#fdfdfd}.cls-3{fill:#fcfdfd}.cls-4{fill:#9ab1bd}.cls-5{fill:#7291a3}.cls-6{fill:#9bb1be}</style></defs><title>short-next-arrow-24-vector</title><path d="M296,395.82V384h10.81c3.51,2.23,5.4,5.86,7.72,9.1s.25,5.74-1.6,8.23a9.13,9.13,0,0,1-.81,1.12c-1.75,1.75-3.1,3.92-5.31,5.2-10.81,0-10.81,0-10.81-10.84,5.11-1.08,10.28-.12,14.56-.49C306.28,395.94,301.11,396.9,296,395.82Z" class="cls-1" transform="translate(-296 -384)"/><path d="M308.78,384h7.86v10.84A16.66,16.66,0,0,1,308.78,384Z" class="cls-2" transform="translate(-296 -384)"/><path d="M316.64,396.81a15.28,15.28,0,0,0,0,2.95c1.32,6.64-1.28,9.26-7.89,7.89-1.28-3.12,2.36-3.76,3-5.94l0,0C313.32,400.08,314.22,397.68,316.64,396.81Z" class="cls-3" transform="translate(-296 -384)"/><path d="M316.64,396.81l-4.93,4.94c6.69-8.22-3-11.91-4.9-17.75h2l7.86,10.84Z" class="cls-4" transform="translate(-296 -384)"/><path d="M296,395.82h15.09v1H296Z" class="cls-5" transform="translate(-296 -384)"/><path d="M311.74,401.71l-3,5.94h-2Z" class="cls-6" transform="translate(-296 -384)"/></svg>